<?xml version="1.0" standalone="no"?><!-- Generator: Gravit.io --><svg xmlns="http://www.w3.org/2000/svg" xmlns:xlink="http://www.w3.org/1999/xlink" style="isolation:isolate" viewBox="0 0 200 200" width="200" height="200"><defs><clipPath id="_clipPath_sLNqWU1f6GCcmSjJZOPFYq4LMi6nUMi9"><rect width="200" height="200"/></clipPath></defs><g clip-path="url(#_clipPath_sLNqWU1f6GCcmSjJZOPFYq4LMi6nUMi9)"><path d=" M 100 6.758 L 100 100 L 180.75 146.621 L 180.75 53.379 L 100 6.758 Z " fill="rgb(232,232,232)" vector-effect="non-scaling-stroke" stroke-width="1.682" stroke="rgb(93,93,93)" stroke-linejoin="round" stroke-linecap="round" stroke-miterlimit="3"/><linearGradient id="_lgradient_0" x1="-120.00000000000001%" y1="66.80445499608687%" x2="194.82090643274853%" y2="21.424640072895606%"><stop offset="0%" stop-opacity="1" style="stop-color:rgb(116,116,116)"/><stop offset="23.107536051931405%" stop-opacity="1" style="stop-color:rgb(165,165,165)"/><stop offset="99.1304347826087%" stop-opacity="1" style="stop-color:rgb(232,232,232)"/></linearGradient><path d=" M 100 6.758 L 100 8.823 L 100 100 L 19.25 146.621 L 19.25 53.379 L 100 6.758 Z " fill="url(#_lgradient_0)" vector-effect="non-scaling-stroke" stroke-width="1.682" stroke="rgb(93,93,93)" stroke-linejoin="round" stroke-linecap="round" stroke-miterlimit="3"/><linearGradient id="_lgradient_1" x1="-15.541101055806905%" y1="87.14884275177484%" x2="98.07126696832576%" y2="28.5647742998964%"><stop offset="3.0434782608695654%" stop-opacity="1" style="stop-color:rgb(93,93,93)"/><stop offset="93.71197804908702%" stop-opacity="1" style="stop-color:rgb(202,202,202)"/><stop offset="99.1304347826087%" stop-opacity="1" style="stop-color:rgb(232,232,232)"/></linearGradient><path d=" M 19.25 146.621 L 100 193.242 L 180.75 146.621 L 100 100 L 19.25 146.621 Z " fill="url(#_lgradient_1)" vector-effect="non-scaling-stroke" stroke-width="1.682" stroke="rgb(93,93,93)" stroke-linejoin="round" stroke-linecap="round" stroke-miterlimit="3"/><g id="Group"><path d=" M 59.625 107.77 L 59.625 76.689 L 32.708 61.149 L 32.708 92.23 L 59.625 107.77 Z " fill="rgb(255,40,40)"/><path d=" M 59.625 107.77 L 59.625 107.082 L 59.625 76.689 L 86.542 61.149 L 86.542 92.23 L 59.625 107.77 Z " fill="rgb(204,0,0)"/><path d=" M 86.542 61.149 L 59.625 45.609 L 32.708 61.149 L 59.625 76.689 L 86.542 61.149 Z " fill="rgb(157,0,0)"/></g><g id="Group"><path d=" M 140.375 107.77 L 140.375 76.689 L 113.458 61.149 L 113.458 92.23 L 140.375 107.77 Z " fill="rgb(0,223,0)"/><path d=" M 140.375 107.77 L 140.375 107.082 L 140.375 76.689 L 167.292 61.149 L 167.292 92.23 L 140.375 107.77 Z " fill="rgb(0,176,0)"/><path d=" M 167.292 61.149 L 140.375 45.609 L 113.458 61.149 L 140.375 76.689 L 167.292 61.149 Z " fill="rgb(0,130,0)"/></g><g id="Group"><path d=" M 100 177.702 L 100 146.621 L 73.083 131.081 L 73.083 162.161 L 100 177.702 Z " fill="rgb(19,19,255)"/><path d=" M 100 177.702 L 100 177.013 L 100 146.621 L 126.917 131.081 L 126.917 162.161 L 100 177.702 Z " fill="rgb(0,0,206)"/><path d=" M 126.917 131.081 L 100 115.54 L 73.083 131.081 L 100 146.621 L 126.917 131.081 Z " fill="rgb(0,0,151)"/></g></g></svg>